<?xml version="1.0" standalone="no"?>
<!DOCTYPE svg PUBLIC "-//W3C//DTD SVG 20010904//EN"
 "http://www.w3.org/TR/2001/REC-SVG-20010904/DTD/svg10.dtd">
<svg version="1.0" xmlns="http://www.w3.org/2000/svg"
 width="600.000000pt" height="600.000000pt" viewBox="0 0 600.000000 600.000000"
 preserveAspectRatio="xMidYMid meet">
<metadata>
Created by potrace 1.11, written by Peter Selinger 2001-2013
</metadata>
<g transform="translate(0.000000,600.000000) scale(0.100000,-0.100000)"
fill="#000000" stroke="none">
<path d="M4158 4830 c-83 -44 -198 -189 -231 -290 -40 -121 -42 -256 -8 -355
40 -112 100 -181 242 -276 l68 -46 -107 -32 c-901 -273 -1350 -862 -1166
-1531 16 -61 20 -69 59 -155 90 -196 263 -376 468 -485 78 -42 221 -95 281
-104 21 -4 42 -8 45 -11 29 -18 336 -26 461 -12 483 53 881 265 1095 583 136
201 196 410 190 659 -6 259 -93 477 -285 716 -150 186 -346 361 -739 657 -190
144 -245 192 -307 267 -59 72 -88 139 -87 200 1 60 19 100 67 146 35 32 35 33
18 61 -19 33 -17 33 -64 8z m267 -1124 c353 -284 539 -577 580 -916 9 -70 9
-261 0 -331 -58 -472 -347 -792 -713 -789 -81 0 -105 2 -162 15 -39 8 -182 65
-190 75 -3 4 -12 9 -20 12 -25 9 -133 94 -171 135 -148 158 -241 359 -278 598
-9 61 -7 280 3 325 3 14 8 39 12 55 12 62 67 212 101 280 83 163 213 317 356
423 102 76 318 176 392 181 6 1 47 -28 90 -63z"/>
<path d="M310 4538 c0 -15 3 -28 8 -28 4 0 34 -4 66 -10 72 -12 113 -30 151
-67 61 -61 58 20 58 -1355 l0 -1257 -24 -48 c-20 -39 -35 -53 -79 -75 -51 -25
-101 -37 -157 -38 -19 0 -23 -6 -23 -30 l0 -30 540 0 540 0 0 29 c0 27 -2 28
-60 34 -59 7 -127 34 -164 66 -10 9 -28 34 -39 56 l-21 40 -1 1370 0 1370
-398 1 -397 1 0 -29z"/>
<path d="M1724 3880 c0 -23 4 -30 20 -31 137 -3 246 -70 266 -162 4 -18 1 -47
-6 -68 -12 -37 -84 -187 -107 -223 -61 -100 -169 -245 -241 -326 -79 -89 -305
-306 -389 -375 -48 -38 -86 -74 -87 -78 0 -8 226 -335 240 -347 3 -3 22 -28
42 -57 20 -28 43 -60 52 -70 242 -301 371 -421 566 -530 60 -33 191 -78 255
-88 43 -7 171 -7 220 -1 17 3 51 7 77 10 61 7 129 23 203 48 112 38 105 33 95
69 -5 17 -11 33 -13 35 -2 2 -21 -1 -43 -7 -98 -28 -171 -15 -259 44 -67 44
-245 219 -350 342 -38 44 -71 82 -75 85 -3 3 -48 57 -100 120 -51 63 -96 117
-99 120 -3 3 -24 28 -46 55 -22 28 -50 61 -61 75 -207 239 -207 240 -183 240
16 0 197 122 284 191 207 164 379 377 494 612 57 117 82 180 115 295 l15 52
-443 0 -442 0 0 -30z"/>
</g>
</svg>
